<?xml version="1.0" encoding="utf-8"?>
<!-- Generator: Adobe Illustrator 27.6.1, SVG Export Plug-In . SVG Version: 6.00 Build 0)  -->
<svg version="1.1" id="Layer_1" xmlns="http://www.w3.org/2000/svg" xmlns:xlink="http://www.w3.org/1999/xlink" x="0px" y="0px"
	 viewBox="0 0 120 90" style="enable-background:new 0 0 120 90;" xml:space="preserve">
<style type="text/css">
	.st0{fill:#005F82;}
</style>
<path class="st0" d="M85.5,49.4c1.1-1.1,1.7,0.1,1.1,0.6c-2.2,2.2-2.6,5.4-2.6,8.5c-1.7,0-8.1,0-9.1,0c-1.5,0-1.6-1.1-0.8-1.6
	c0.6-0.4,3.8-1.3,6.3-3C83.1,52.2,85,49.9,85.5,49.4z"/>
<g>
	<path class="st0" d="M85,62.5c-1.1,0-45.6,0-46.5,0c-0.4,0-0.7-0.3-0.7-0.8c0-0.4,0.3-0.7,0.8-0.7l0,0c0.8,0,45.3,0,46.4,0
		c0.4,0,0.8,0.3,0.8,0.8S85.4,62.5,85,62.5z"/>
	<path class="st0" d="M19.4,62.5c-1.5,0-12-0.6-12.9-1.2c-1.1-0.8-0.3-4.4,0.2-5.8c-0.2-0.2-0.4-0.5-0.5-0.7C5.1,53.3,4.1,52,4.7,51
		c1-2.2,5.4-4.4,7.3-5.3c5.2-2.4,16.5-5.1,26.2-6.4c0.6-0.4,1.4-0.9,2.1-1.4c2.2-1.4,4.9-3.2,7.2-4.4l0.2-0.1
		c4.1-2.3,11.1-6.1,20.9-6.4c5.2-0.2,15.2,0.8,19.8,2.2c3.1,1,8.8,4.8,12.3,7.1c0.7,0.5,1.4,0.9,1.8,1.2c2.2,0.9,4.6,1.7,5.8,2.2
		c1,0.4,3.1,1.2,5.3,2.3c0.5,0.3,0.7,0.9,1,1.8l0.1,0.2c0.2,0.6,0.4,1.3,0.5,2.1c0.7,3.9,0,9.9-0.9,12.4c-0.5,1.4-2.3,3.1-4.3,3.5
		c-1.2,0.2-4.5,0.5-6.1,0.5c-0.4,0-0.7-0.3-0.7-0.8s0.3-0.7,0.8-0.7c1.5,0,4.7-0.3,5.8-0.5c1.4-0.3,2.8-1.6,3.2-2.6
		c0.9-2.3,1.4-8.1,0.8-11.7c-0.1-0.7-0.3-1.3-0.5-1.8l-0.1-0.2c-0.1-0.2-0.2-0.7-0.3-0.9c-2.1-1.1-4.1-1.8-5.1-2.2
		c-1.2-0.4-3.6-1.3-5.9-2.2c0,0-0.1,0-0.1-0.1c-0.5-0.3-1.1-0.7-1.9-1.3c-3.1-2.1-8.9-6-11.9-6.9c-4.4-1.4-14.2-2.3-19.3-2.2
		c-9.5,0.3-16.2,4-20.2,6.2l-0.2,0.1c-2.2,1.2-4.9,3-7.1,4.4c-0.8,0.6-1.6,1.1-2.3,1.5c-0.1,0.1-0.2,0.1-0.3,0.1
		c-11,1.4-21.6,4.3-26,6.3c-3.5,1.6-6,3.4-6.5,4.6c0,0,0,0,0,0.1c0,0.4,0.9,1.5,1.4,2.2c0.3,0.4,0.6,0.8,0.8,1.1
		c0.2,0.2,0.2,0.6,0,0.8c-0.4,0.6-0.9,3.5-0.7,4.3c1.4,0.3,11,1,11.9,0.9c0.4,0,0.8,0.3,0.8,0.7s-0.3,0.8-0.7,0.8
		C19.5,62.5,19.5,62.5,19.4,62.5z"/>
	<path class="st0" d="M29,65.8c-4.5,0-8.1-3.6-8.1-8.1s3.6-8.1,8.1-8.1s8.1,3.6,8.1,8.1C37.1,62.1,33.5,65.8,29,65.8z M29,51.1
		c-3.6,0-6.6,3-6.6,6.6s3,6.6,6.6,6.6s6.6-3,6.6-6.6C35.6,54,32.7,51.1,29,51.1z"/>
	<path class="st0" d="M94.5,65.8c-4.5,0-8.1-3.6-8.1-8.1s3.6-8.1,8.1-8.1s8.1,3.6,8.1,8.1C102.6,62.1,99,65.8,94.5,65.8z M94.5,51.1
		c-3.6,0-6.6,3-6.6,6.6s3,6.6,6.6,6.6s6.6-3,6.6-6.6C101.1,54,98.2,51.1,94.5,51.1z"/>
	<path class="st0" d="M67.6,42.3H48.1c-0.2,0-0.4-0.1-0.5-0.2c-0.7-0.6-1.6-1.5-2.1-2.1c-0.3-0.3-0.2-0.7,0-1
		c2.1-2.1,6.5-4.5,7.8-5.1c4.6-2.4,11.4-4.1,15.5-4c0.2,0,0.4,0.1,0.6,0.3c0.1,0.2,0.2,0.4,0.2,0.6c-0.5,3.1-1.3,9.8-1.3,10.8
		C68.4,41.9,68,42.3,67.6,42.3z M48.4,40.8h18.5c0.2-1.9,0.8-6.6,1.2-9.4c-3.9,0.1-9.9,1.7-13.9,3.8c-0.8,0.4-4.8,2.5-6.9,4.4
		C47.6,40,48,40.4,48.4,40.8z"/>
	<path class="st0" d="M95.1,42.3H71.6c-0.4,0-0.8-0.3-0.8-0.8c0-1.1,0.5-8.1,0.8-11c0-0.4,0.3-0.7,0.7-0.7
		c4.2-0.1,13.3,1.3,16.3,2.6c2,0.9,6.7,7.2,7.1,8.9c0.1,0.2,0,0.5-0.1,0.6C95.5,42.2,95.3,42.3,95.1,42.3z M72.4,40.8h21.5
		c-1.2-2.2-4.6-6.4-5.9-6.9l0,0c-2.6-1.1-10.8-2.4-15-2.4C72.8,34.1,72.5,38.8,72.4,40.8z"/>
	<path class="st0" d="M67.1,59.5C67.1,59.5,67,59.5,67.1,59.5c-0.5,0-0.8-0.4-0.7-0.8c0.2-1.9,0.4-4.4,0.7-6.9
		c0.3-3.2,0.6-6.3,0.7-7.4c0-0.4,0.4-0.7,0.8-0.7s0.7,0.4,0.7,0.8c-0.1,1.1-0.4,4.1-0.7,7.4c-0.2,2.4-0.5,5-0.7,6.8
		C67.8,59.2,67.5,59.5,67.1,59.5z"/>
	<path class="st0" d="M62.6,45.3h-4.2c-0.4,0-0.8-0.3-0.8-0.8s0.3-0.8,0.8-0.8h4.2c0.4,0,0.8,0.3,0.8,0.8S63,45.3,62.6,45.3z"/>
	<path class="st0" d="M91.8,45.1h-4.2c-0.4,0-0.8-0.3-0.8-0.8s0.3-0.8,0.8-0.8h4.2c0.4,0,0.8,0.3,0.8,0.8S92.2,45.1,91.8,45.1z"/>
	<path class="st0" d="M109.6,67H13c-0.4,0-0.8-0.3-0.8-0.8s0.3-0.8,0.8-0.8h96.5c0.4,0,0.8,0.3,0.8,0.8S110,67,109.6,67z"/>
	<path class="st0" d="M22.9,40.6c-0.4,0-0.8-0.3-0.8-0.8V23.5c0-1.6,1.2-2.9,2.6-2.9h11.5c0.7,0,1.3,0.2,1.7,0.6
		c0.6,0.6,0.6,1.5,0.6,2.2v0.2v12.5c0,0.4-0.3,0.8-0.8,0.8s-0.8-0.3-0.8-0.8V23.4c0-0.5,0-1-0.2-1.2C36.6,22.1,36.4,22,36,22H24.8
		c-0.6,0-1.1,0.6-1.1,1.4v16.4C23.7,40.3,23.3,40.6,22.9,40.6z"/>
	<path class="st0" d="M29,39.3c-0.1,0-0.2,0-0.3-0.1c-0.3-0.1-0.5-0.5-0.5-0.8l1.1-5.4h-2.8c-0.3,0-0.5-0.1-0.7-0.4
		c-0.1-0.2-0.1-0.5,0-0.8l5.1-8.1c0.2-0.3,0.6-0.4,0.9-0.3c0.3,0.1,0.5,0.5,0.5,0.8l-0.7,4.5l3.2,0.2c0.3,0,0.5,0.2,0.6,0.4
		c0.1,0.2,0.1,0.5,0,0.7l-5.7,8.8C29.5,39.2,29.2,39.3,29,39.3z M30.2,31.5c0.2,0,0.4,0.1,0.6,0.3c0.1,0.2,0.2,0.4,0.2,0.6l-0.5,2.5
		l2.9-4.5l-2.7-0.2c-0.2,0-0.4-0.1-0.5-0.3S30,29.5,30,29.3l0.3-1.7l-2.4,3.9L30.2,31.5L30.2,31.5z"/>
</g>
</svg>
