<?xml version="1.0" encoding="utf-8"?>
<!-- Generator: Adobe Illustrator 27.6.1, SVG Export Plug-In . SVG Version: 6.00 Build 0)  -->
<svg version="1.1" id="Layer_2_00000149351166190847892930000008168476074641945731_"
	 xmlns="http://www.w3.org/2000/svg" xmlns:xlink="http://www.w3.org/1999/xlink" x="0px" y="0px" viewBox="0 0 120 90"
	 style="enable-background:new 0 0 120 90;" xml:space="preserve">
<style type="text/css">
	.st0{fill:#005F82;}
</style>
<path class="st0" d="M87.1,62.4H35.3c-0.4,0-0.8-0.3-0.8-0.8s0.3-0.8,0.8-0.8h51.8c0.4,0,0.8,0.3,0.8,0.8S87.5,62.4,87.1,62.4z"/>
<path class="st0" d="M15.6,62.4c-1.5,0-6.7-0.5-7.6-1.1c-0.8-0.5-1.2-3-1.1-4.5C7,55.2,7.4,54,8.2,53.4c0.1-0.6,0.1-2.1,0.1-3.4
	c-0.1-4.1,0-7.4,1.3-8.6c1.4-1.3,8.7-2.7,18.1-4.3c2.6-0.5,5.1-0.9,5.8-1.1c0.6-0.7,1.7-2.5,2.9-4.3c2.4-3.8,5-8,6.8-9.2
	c4.6-3,24.5-2.8,31.1-2.5c0.2,0,24.6,1.1,29.8,3.1c1.1,0.4,1.9,0.9,2.1,1.6c0.1,0.7-0.4,1.2-0.8,1.6c-0.1,0.1-0.3,0.3-0.4,0.4
	c1,1.8,2.7,5.5,4,8.2c0.6,1.3,1.1,2.4,1.3,2.8c1.7,3.3,2.7,7.4,2.7,11.5c0,2.4-1,10.8-2.5,12.1c-0.8,0.7-2.1,1.1-4,1.1
	c-0.4,0-0.7-0.3-0.7-0.8c0-0.4,0.3-0.7,0.8-0.7h0.1c1.4,0,2.4-0.2,2.9-0.7c0.7-0.7,2-7.7,2-11c0-3.9-0.9-7.7-2.5-10.8
	c-0.2-0.4-0.7-1.5-1.4-2.9c-1.3-2.8-3.2-7-4.1-8.5c-0.1-0.2-0.1-0.4-0.1-0.6c0.2-0.6,0.6-0.9,1-1.3c0.1-0.1,0.1-0.1,0.2-0.2
	c-0.2-0.1-0.4-0.3-1-0.5c-4.2-1.6-24.2-2.8-29.3-3c-10.1-0.4-26.6,0-30.2,2.3c-1.5,1-4.3,5.4-6.4,8.7c-1.4,2.3-2.6,4.1-3.2,4.7
	c-0.1,0.1-0.2,0.1-0.3,0.2c-0.6,0.2-2.6,0.6-6.2,1.2c-5.7,1-16.2,2.8-17.4,3.9c-1,0.9-0.9,4.9-0.8,7.5c0,2.2,0.1,3.5-0.2,4.2
	c-0.1,0.2-0.2,0.3-0.3,0.4c-0.4,0.2-0.6,0.8-0.7,1.2c-0.4,1.6,0.1,3.7,0.4,4.2c0.8,0.3,5.8,0.9,6.8,0.8c0.4,0,0.8,0.3,0.8,0.7
	s-0.3,0.8-0.7,0.8C15.8,62.4,15.7,62.4,15.6,62.4z M8.9,60.1L8.9,60.1L8.9,60.1z"/>
<path class="st0" d="M25.7,65.7c-4.6,0-8.3-3.7-8.3-8.3s3.7-8.3,8.3-8.3s8.3,3.7,8.3,8.3S30.3,65.7,25.7,65.7z M25.7,50.6
	c-3.8,0-6.8,3.1-6.8,6.8s3.1,6.8,6.8,6.8s6.8-3.1,6.8-6.8S29.5,50.6,25.7,50.6z"/>
<path class="st0" d="M96.9,65.7c-4.6,0-8.3-3.7-8.3-8.3s3.7-8.3,8.3-8.3s8.3,3.7,8.3,8.3S101.5,65.7,96.9,65.7z M96.9,50.6
	c-3.8,0-6.8,3.1-6.8,6.8s3.1,6.8,6.8,6.8s6.8-3.1,6.8-6.8S100.7,50.6,96.9,50.6z"/>
<path class="st0" d="M66.5,39.1c-4.1,0-14.2,0-19.5,0h-3.5c-1.3,0-2.3-0.6-2.9-1.6c-0.6-1.2-0.5-2.9,0.3-4.1l0,0
	c0.2-0.3,0.6-0.8,0.9-1.4c2.1-3.1,4.1-6,5.5-6.8c3.3-2,17.4-2.2,20.8-2.1c0.2,0,0.4,0.1,0.5,0.3s0.2,0.4,0.2,0.6
	c-0.2,1.7-0.6,5.2-0.9,8.4c-0.3,2.9-0.6,5.3-0.7,6.1C67.1,38.8,66.8,39.1,66.5,39.1z M65.9,24.6c-5.6,0-15.5,0.5-17.8,1.9
	c-1.2,0.7-3.7,4.4-5,6.3c-0.4,0.6-0.7,1-0.9,1.4l0,0c-0.5,0.7-0.6,1.8-0.2,2.5c0.3,0.6,0.8,0.8,1.5,0.8H47c5.1,0,14.4,0,18.9,0
	c0.1-1.1,0.4-3.2,0.6-5.4c0.3-2.7,0.6-5.7,0.8-7.6C66.8,24.6,66.3,24.6,65.9,24.6z M41.5,33.8L41.5,33.8L41.5,33.8z"/>
<path class="st0" d="M96.4,39.8c-1,0-6.3-0.2-11.9-0.3c-5.6-0.2-11.4-0.4-12.6-0.4c-0.4,0-0.8-0.3-0.8-0.8c0-1.2,0.6-11.8,0.8-14.5
	c0-0.4,0.3-0.7,0.8-0.7c3.8,0.1,15.5,0.6,19.1,1.9c0.1,0,0.2,0.1,0.3,0.2c1.9,1.9,4.2,10.9,4.9,13.6c0.1,0.2,0,0.5-0.1,0.6
	C96.9,39.6,96.7,39.8,96.4,39.8z M72.8,37.6c2.1,0,7,0.2,11.9,0.3c4.3,0.1,8.8,0.3,10.8,0.3c-1.3-5-3.1-10.5-4.2-11.9
	c-3.3-1-12.9-1.6-17.8-1.8C73.3,27.8,72.9,35.1,72.8,37.6z"/>
<path class="st0" d="M65.7,59.9C65.7,59.9,65.6,59.9,65.7,59.9c-0.5,0-0.8-0.4-0.7-0.8c0.5-6.6,1.4-16.1,1.7-18.2
	c0.1-0.4,0.4-0.7,0.8-0.6c0.4,0.1,0.7,0.4,0.6,0.8c-0.3,2.2-1.2,11.6-1.7,18.2C66.4,59.6,66.1,59.9,65.7,59.9z"/>
<path class="st0" d="M63.1,41.8h-4.3c-0.4,0-0.8-0.3-0.8-0.8s0.3-0.8,0.8-0.8h4.3c0.4,0,0.8,0.3,0.8,0.8S63.5,41.8,63.1,41.8z"/>
<path class="st0" d="M95.3,43H91c-0.4,0-0.8-0.3-0.8-0.8s0.3-0.8,0.8-0.8h4.3c0.4,0,0.8,0.3,0.8,0.8S95.7,43,95.3,43z"/>
<path class="st0" d="M112.4,67H8.2c-0.4,0-0.8-0.3-0.8-0.8s0.3-0.8,0.8-0.8h104.2c0.4,0,0.8,0.3,0.8,0.8S112.8,67,112.4,67z"/>
<path class="st0" d="M88.4,48.1c-3.3,3-3.6,8.1-3.6,9.7c0,0.3-0.2,0.5-0.5,0.5h-9.7c-0.5,0-0.7-0.7-0.2-0.9
	c4.3-2.3,10.6-7.6,12.8-9.7C88.4,46.4,88.9,47.6,88.4,48.1z"/>
</svg>
