<?xml version="1.0" encoding="utf-8"?>
<!-- Generator: Adobe Illustrator 27.6.1, SVG Export Plug-In . SVG Version: 6.00 Build 0)  -->
<svg version="1.1" id="Layer_1" xmlns="http://www.w3.org/2000/svg" xmlns:xlink="http://www.w3.org/1999/xlink" x="0px" y="0px"
	 viewBox="0 0 120 90" style="enable-background:new 0 0 120 90;" xml:space="preserve">
<style type="text/css">
	.st0{fill:#005F82;}
</style>
<path class="st0" d="M87.5,62.4H35.7c-0.4,0-0.8-0.3-0.8-0.8s0.3-0.8,0.8-0.8h51.8c0.4,0,0.8,0.3,0.8,0.8S87.9,62.4,87.5,62.4z"/>
<path class="st0" d="M15.9,62.4c-1.5,0-6.7-0.5-7.6-1.1s-2.2-4.4-2.1-6.6c0.1-1.2,0.5-1.9,0.9-2.2c0.2-0.5,0.3-1.7,0.4-2.8
	c0.4-3.1,0.8-6.9,2.3-8.3c1.5-1.4,9.1-3.7,16.2-5.8c1.2-0.4,2.3-0.7,2.7-0.8c0.3-0.3,0.8-0.9,1.5-1.5c3.9-4.1,8.3-8.6,10.4-9.9
	c3.6-2.3,13.1-2.5,22.3-2.8c1.4,0,2.8-0.1,4.1-0.1c4-0.1,33.7,0.2,38.5,2c1.1,0.4,1.8,1.3,2.3,2.7c1.4,4,3,10.8,3.9,14.5l0.1,0.6
	c1.5,6.2,1.8,15.2,1.7,17.3c-0.1,2.2-1,3.7-2.5,4.3c-1.1,0.4-2.4,0.6-4.2,0.6c-0.4,0-0.7-0.3-0.7-0.8c0-0.4,0.3-0.7,0.8-0.7
	c0.1,0,0.1,0,0.2,0c1.5,0,2.6-0.2,3.5-0.5c1.2-0.5,1.5-2.1,1.6-3c0.1-1.9-0.3-10.9-1.7-16.8l-0.2-0.6c-0.9-3.6-2.5-10.4-3.8-14.4
	c-0.5-1.3-1-1.6-1.4-1.8c-4.3-1.6-33-2-37.9-1.9c-1.4,0-2.7,0.1-4.1,0.1c-8.6,0.2-18.3,0.5-21.5,2.5c-2.1,1.3-7.3,6.8-10.1,9.7
	c-0.7,0.8-1.3,1.4-1.6,1.7c-0.1,0.1-0.2,0.1-0.3,0.2c-0.4,0.2-1.5,0.5-3,0.9c-4.2,1.3-14.2,4.2-15.6,5.5c-1.1,1-1.5,4.8-1.8,7.3
	c-0.2,1.8-0.4,2.9-0.6,3.4c-0.1,0.2-0.2,0.3-0.3,0.4c-0.3,0-0.4,0.3-0.4,0.7c-0.3,1.8,1,5.1,1.4,5.6c0.8,0.3,5.9,0.9,6.9,0.8
	c0.4,0,0.8,0.3,0.8,0.7s-0.3,0.8-0.7,0.8C16.2,62.4,16.1,62.4,15.9,62.4z"/>
<path class="st0" d="M26.1,65.7c-4.6,0-8.3-3.7-8.3-8.3s3.7-8.3,8.3-8.3s8.3,3.7,8.3,8.3S30.7,65.7,26.1,65.7z M26.1,50.6
	c-3.8,0-6.8,3.1-6.8,6.8s3.1,6.8,6.8,6.8c3.8,0,6.8-3.1,6.8-6.8S29.8,50.6,26.1,50.6z"/>
<path class="st0" d="M97.3,65.7c-4.6,0-8.3-3.7-8.3-8.3s3.7-8.3,8.3-8.3c4.6,0,8.3,3.7,8.3,8.3S101.9,65.7,97.3,65.7z M97.3,50.6
	c-3.8,0-6.8,3.1-6.8,6.8s3.1,6.8,6.8,6.8s6.8-3.1,6.8-6.8S101.1,50.6,97.3,50.6z"/>
<path class="st0" d="M61.3,37.4H39c-1.3,0-2.3-0.5-2.8-1.5c-0.4-0.9-0.3-1.9,0.3-2.7l0,0c1.2-1.7,4.6-5.8,6.5-6.9
	c3.8-2.3,19.8-1.8,19.9-1.8c0.2,0,0.4,0.1,0.5,0.3c0.1,0.2,0.2,0.4,0.2,0.6l-0.4,2.8c-0.4,3.3-0.9,7-1.2,8.7
	C62,37.1,61.7,37.4,61.3,37.4z M37.7,34.1c-0.3,0.4-0.3,0.8-0.1,1.2s0.7,0.6,1.4,0.6h21.7c0.3-1.9,0.7-5.1,1.1-8l0.3-2
	c-5.6-0.1-15.9,0.2-18.3,1.6C42.2,28.4,39,32.2,37.7,34.1L37.7,34.1z"/>
<path class="st0" d="M91,37.4H65.9c-0.2,0-0.4-0.1-0.6-0.3c-0.1-0.2-0.2-0.4-0.2-0.6c0.3-2.7,1-9.3,1.3-11.6c0-0.4,0.3-0.7,0.7-0.7
	c4.4-0.2,21,0.2,24.8,0.4c0.2,0,0.4,0.1,0.5,0.3c0.1,0.2,0.2,0.4,0.2,0.6c-0.3,2.6-0.7,7.4-0.9,10l-0.1,1.2
	C91.7,37.1,91.4,37.4,91,37.4z M66.8,35.9h23.5v-0.5c0.2-2.4,0.5-6.5,0.8-9.3c-4.7-0.1-18.4-0.5-23.2-0.4
	C67.6,28.2,67.1,33.1,66.8,35.9z"/>
<path class="st0" d="M106.2,37.4H95.7c-0.2,0-0.4-0.1-0.5-0.2C95,37,95,36.8,95,36.6c0-0.1,0.5-8.1,0.8-11.2c0-0.4,0.4-0.7,0.7-0.7
	c3.9,0,6.3,0.2,7,0.7c0.1,0.1,0.2,0.1,0.2,0.3c1.1,1.9,2.2,6.8,2.8,9.4c0.1,0.6,0.2,1,0.3,1.3c0.1,0.2,0,0.5-0.1,0.6
	C106.6,37.3,106.4,37.4,106.2,37.4z M96.5,35.9h8.7c0-0.1-0.1-0.3-0.1-0.4c-0.5-2.3-1.6-6.9-2.5-8.8c-0.6-0.2-2.5-0.4-5.4-0.4
	C96.9,29,96.6,33.9,96.5,35.9z"/>
<path class="st0" d="M59.8,59.9L59.8,59.9c-0.5,0-0.8-0.4-0.7-0.8c0.6-7,1.7-16.9,2-19.3c0.1-0.4,0.4-0.7,0.8-0.6
	c0.4,0.1,0.7,0.4,0.6,0.9c-0.3,2.3-1.4,12.2-2,19.2C60.5,59.6,60.2,59.9,59.8,59.9z"/>
<path class="st0" d="M85.9,53c0.9-3.3,4.8-5.7,7.3-6.1c0.1-1.5,0.2-3.4,0.4-4.8c0.1-0.7-0.8-0.8-1.3-0.3c-0.8,0.7-5.8,4.5-9.9,7.3
	c-5.5,3.8-16.5,7.4-18.1,8c-1.1,0.4-0.9,1.3,0.3,1.3c1.6,0,19,0,19.6,0s1.1-0.4,1.1-1.2S85.7,53.8,85.9,53z"/>
<path class="st0" d="M57.2,40.7h-4.3c-0.4,0-0.8-0.3-0.8-0.8s0.3-0.8,0.8-0.8h4.3c0.4,0,0.8,0.3,0.8,0.8S57.7,40.7,57.2,40.7z"/>
<path class="st0" d="M70.2,40.7h-4.3c-0.4,0-0.8-0.3-0.8-0.8s0.3-0.8,0.8-0.8h4.3c0.4,0,0.8,0.3,0.8,0.8S70.6,40.7,70.2,40.7z"/>
<path class="st0" d="M112.8,67H9c-0.4,0-0.8-0.3-0.8-0.8s0.3-0.8,0.8-0.8h103.8c0.4,0,0.8,0.3,0.8,0.8S113.2,67,112.8,67z"/>
</svg>
