<?xml version="1.0" encoding="utf-8"?>
<!-- Generator: Adobe Illustrator 27.6.1, SVG Export Plug-In . SVG Version: 6.00 Build 0)  -->
<svg version="1.1" id="Layer_1" xmlns="http://www.w3.org/2000/svg" xmlns:xlink="http://www.w3.org/1999/xlink" x="0px" y="0px"
	 viewBox="0 0 120 90" style="enable-background:new 0 0 120 90;" xml:space="preserve">
<style type="text/css">
	.st0{fill:#005F82;}
</style>
<path class="st0" d="M54.6,49.7c0.7-0.8,1.3-0.4,1.2,0.4c-0.3,2.3-0.7,6-1,7.7c0,0.3-0.3,0.5-0.6,0.5h-9c-1.5,0-1.6-1.1-0.8-1.6
	c0.6-0.4,3.8-1.3,6.3-3C53.2,51.9,54.1,50.3,54.6,49.7z"/>
<g>
	<path class="st0" d="M13.6,62.4c-1.5,0-6.7-0.5-7.6-1.1s-2.2-4.4-2.1-6.6c0.1-1.2,0.5-1.9,0.9-2.2C5,52,5.1,50.8,5.2,49.7
		c0.4-3.1,0.8-6.9,2.3-8.3c1.4-1.3,7.4-2.6,14.6-4c2-0.4,3.7-0.7,4.4-0.9c0.3-0.3,0.8-0.9,1.5-1.5c3.9-4.1,8.3-8.6,10.4-9.9
		c3.7-2.3,14.2-2.3,21.2-2.2c0.8,0,1.6,0,2.3,0c0.2,0,0.4,0.1,0.5,0.2s0.2,0.3,0.2,0.6C62.5,26,62.2,29.2,62,32
		c-0.2,2-0.4,3.9-0.4,5.1H113c0.4,0,0.7,0.3,0.7,0.6c0.8,4,1.1,5.7,1.7,9.2c1.1,6.7,0.5,10.9-0.5,12.5c-1,1.7-2.5,2.5-5.5,2.9
		c-1.2,0.2-3.1,0.2-4.8,0.2c-0.4,0-0.7-0.3-0.7-0.8c0-0.4,0.3-0.7,0.8-0.7l0,0c1.6,0,3.5,0,4.6-0.2c2.5-0.4,3.7-1,4.5-2.2
		c0.9-1.5,1.3-5.6,0.3-11.5c-0.5-3.3-0.8-5-1.5-8.5H60.8c-0.4,0-0.8-0.3-0.8-0.8c0-1,0.2-3.3,0.5-6c0.2-2.5,0.5-5.2,0.6-7.4
		c-0.5,0-1,0-1.5,0c-6.4,0-17.1-0.1-20.4,2c-2.1,1.3-7.3,6.8-10.1,9.7c-0.7,0.8-1.3,1.4-1.6,1.7c-0.1,0.1-0.2,0.1-0.3,0.2
		c-0.6,0.2-2.1,0.5-4.7,1c-4.4,0.9-12.6,2.5-13.8,3.7c-1.1,1-1.5,4.8-1.8,7.3c-0.2,1.8-0.4,2.9-0.6,3.4c-0.1,0.2-0.2,0.3-0.3,0.4
		c-0.2,0.1-0.3,0.3-0.4,0.7c-0.3,1.8,1,5.1,1.4,5.6c0.8,0.3,5.9,0.9,6.9,0.8c0.4,0,0.8,0.3,0.8,0.7s-0.3,0.8-0.7,0.8
		C13.9,62.4,13.8,62.4,13.6,62.4z"/>
	<path class="st0" d="M85.2,62.4H33.4c-0.4,0-0.8-0.3-0.8-0.8s0.3-0.8,0.8-0.8h51.8c0.4,0,0.8,0.3,0.8,0.8S85.6,62.4,85.2,62.4z"/>
	<path class="st0" d="M23.8,65.7c-4.6,0-8.3-3.7-8.3-8.3s3.7-8.3,8.3-8.3s8.3,3.7,8.3,8.3S28.3,65.7,23.8,65.7z M23.8,50.6
		c-3.8,0-6.8,3.1-6.8,6.8s3.1,6.8,6.8,6.8c3.8,0,6.8-3.1,6.8-6.8S27.5,50.6,23.8,50.6z"/>
	<path class="st0" d="M95,65.7c-4.6,0-8.3-3.7-8.3-8.3s3.7-8.3,8.3-8.3s8.3,3.7,8.3,8.3S99.6,65.7,95,65.7z M95,50.6
		c-3.8,0-6.8,3.1-6.8,6.8s3.1,6.8,6.8,6.8s6.8-3.1,6.8-6.8S98.8,50.6,95,50.6z"/>
	<path class="st0" d="M36.9,38.8c-1.3,0-2.3-0.5-2.8-1.5c-0.4-0.8-0.3-1.9,0.3-2.7l0,0c1-1.4,4.3-5.5,6.2-6.7
		c3.4-2,14.2-2.4,17.5-2.2c0.2,0,0.4,0.1,0.5,0.3c0.1,0.2,0.2,0.4,0.2,0.6l-0.4,3.1c-0.4,3.2-0.9,6.8-1.1,8.4
		c-0.1,0.4-0.4,0.6-0.7,0.6c-1.4,0-8.7,0.1-13.9,0.1C39.6,38.8,37.2,38.8,36.9,38.8z M35.6,35.5c-0.3,0.4-0.3,0.8-0.1,1.2
		s0.7,0.6,1.4,0.6c0.3,0,2.7,0,5.7,0c4.7,0,11-0.1,13.3-0.1c0.3-1.8,0.7-4.9,1-7.7l0.3-2.3c-4.7-0.1-13.3,0.5-15.9,2
		C39.9,30.1,37.1,33.5,35.6,35.5L35.6,35.5z"/>
	<path class="st0" d="M58.1,59.9L58.1,59.9c-0.5,0-0.8-0.4-0.7-0.8c0.6-6.8,1.7-16.5,2-18.8c0.1-0.4,0.4-0.7,0.9-0.6
		c0.4,0.1,0.7,0.4,0.6,0.9c-0.3,2.2-1.4,11.9-2,18.7C58.8,59.6,58.5,59.9,58.1,59.9z"/>
	<path class="st0" d="M83.8,52c1.3-3.8,4.7-6.2,7.3-7.2s7.2-0.1,9.1,0.7c0.6,0.3,1.1-0.1,0.2-0.7c-1.1-0.7-2.9-2-7.6-2
		c-1.2,0-4.7,0.5-8.3,3.8c-5.2,4.8-5.6,9.4-12.4,10.2c-1.2,0.1-0.9,1.5,0.3,1.5c1.6,0,8.5,0,9.1,0s1.1-0.5,1.3-1.4
		C83,56,83.4,53.2,83.8,52z"/>
	<path class="st0" d="M54.9,41.7h-4.3c-0.4,0-0.8-0.3-0.8-0.8s0.3-0.8,0.8-0.8h4.3c0.4,0,0.8,0.3,0.8,0.8S55.3,41.7,54.9,41.7z"/>
	<path class="st0" d="M113.9,67H6.6c-0.4,0-0.8-0.3-0.8-0.8s0.3-0.8,0.8-0.8h107.3c0.4,0,0.8,0.3,0.8,0.8S114.3,67,113.9,67z"/>
</g>
</svg>
