<?xml version="1.0" encoding="utf-8"?>
<!-- Generator: Adobe Illustrator 27.6.1, SVG Export Plug-In . SVG Version: 6.00 Build 0)  -->
<svg version="1.1" id="Layer_1" xmlns="http://www.w3.org/2000/svg" xmlns:xlink="http://www.w3.org/1999/xlink" x="0px" y="0px"
	 viewBox="0 0 120 90" style="enable-background:new 0 0 120 90;" xml:space="preserve">
<style type="text/css">
	.st0{fill:#005F82;}
</style>
<path class="st0" d="M89.7,63.3H48.2c-0.4,0-0.8-0.3-0.8-0.8s0.3-0.8,0.8-0.8h41.5c0.4,0,0.8,0.3,0.8,0.8S90.1,63.3,89.7,63.3z"/>
<path class="st0" d="M32.4,63.3c-1.3,0-5.5-0.4-6.2-0.9c-0.9-0.6-1.4-4.7-0.8-5.7c0.3-0.5,0.7-0.8,1-1.1c0.2-0.2,0.4-0.4,0.6-0.6
	c0.1-0.3,0.2-0.8,0.3-1.3c0.3-1.5,0.7-3.3,1.9-4.4c1-1,6.5-2.2,16.8-4.3c2.2-0.4,4.2-0.9,4.9-1c1.4-1.3,4.6-3.9,6.8-5.3
	c3.5-2.3,10.6-4.7,18.5-4.9c3.2-0.1,13.1-0.1,17,1.4c1.7,0.6,4.9,2.8,7.7,4.8c1.5,1,3,2,3.7,2.5c1.3,0.2,3.1,0.5,4.2,0.9
	c0.9,0.3,2.1,0.8,2.8,2.1c0.9,1.6,1.6,3.3,2.2,7.1c0.2,1.3,0.5,3.2,0.2,6c-0.1,1-0.6,3.5-2.9,4.3c-1.1,0.4-5.3,0.5-6,0.5
	c-0.4,0-0.7-0.3-0.7-0.8c0-0.4,0.3-0.7,0.8-0.7c0.1,0,0.1,0,0.2,0c1.8,0,4.7-0.2,5.3-0.4c1.5-0.6,1.8-2.3,1.9-3.1
	c0.3-2.6,0-4.5-0.2-5.6c-0.6-3.6-1.2-5.1-2.1-6.6c-0.4-0.6-0.9-1-2-1.4c-1-0.3-2.8-0.7-4.1-0.8c-0.1,0-0.2,0-0.3-0.1
	c-0.8-0.4-2.3-1.4-4-2.6c-2.6-1.8-5.9-4.1-7.4-4.6c-3.4-1.3-12.5-1.4-16.4-1.3c-7.6,0.2-14.3,2.5-17.7,4.7c-2.1,1.4-5.4,4-6.7,5.2
	c-0.1,0.1-0.2,0.1-0.3,0.2c-0.5,0.2-2.1,0.5-5.2,1.1c-4.9,1-15.1,3.1-16.1,3.9c-0.9,0.8-1.2,2.4-1.5,3.7c-0.1,0.7-0.3,1.2-0.5,1.7
	c0,0,0,0.1-0.1,0.1c-0.2,0.3-0.6,0.6-0.9,0.9c-0.3,0.3-0.6,0.5-0.8,0.8c-0.2,0.5,0.1,3,0.4,3.6c0.7,0.2,4.6,0.7,5.4,0.6
	c0.4,0,0.8,0.3,0.8,0.7s-0.3,0.8-0.7,0.8C32.6,63.3,32.5,63.3,32.4,63.3z"/>
<path class="st0" d="M22.7,58.6c-1.3,0-5.5-0.4-6.2-0.9c-0.9-0.6-1.4-4.7-0.8-5.7c0.3-0.5,0.7-0.8,1-1.1c0.2-0.2,0.4-0.4,0.6-0.6
	c0.1-0.3,0.2-0.8,0.3-1.3c0.3-1.5,0.7-3.3,1.9-4.4c1-1,6.5-2.2,16.8-4.3c2.2-0.4,4.2-0.9,4.9-1c1.4-1.3,4.6-3.9,6.8-5.3
	c3.5-2.3,10.6-4.7,18.5-4.9c3.2-0.1,13.1-0.1,17,1.4c0.4,0.1,0.6,0.6,0.4,1c-0.1,0.4-0.6,0.6-1,0.4c-3.4-1.3-12.5-1.4-16.4-1.3
	c-7.6,0.2-14.3,2.5-17.7,4.7c-2.1,1.4-5.4,4-6.7,5.2c-0.1,0.1-0.2,0.1-0.3,0.2c-0.5,0.2-2.1,0.5-5.2,1.1c-4.9,1-15.1,3.1-16.1,3.9
	c-0.9,0.8-1.2,2.4-1.5,3.7c0,0.6-0.1,1.2-0.3,1.6c0,0,0,0.1-0.1,0.1c-0.2,0.3-0.6,0.6-0.9,0.9c-0.3,0.3-0.6,0.5-0.8,0.8
	c-0.2,0.5,0.1,3,0.4,3.6c0.7,0.2,4.6,0.7,5.4,0.6c0.4-0.1,0.8,0.3,0.8,0.7s-0.3,0.8-0.7,0.8C22.9,58.6,22.8,58.6,22.7,58.6z
	 M17.5,56.5L17.5,56.5L17.5,56.5z"/>
<path class="st0" d="M13,53.9c-1.3,0-5.5-0.4-6.2-0.9c-0.9-0.6-1.4-4.7-0.8-5.7c0.3-0.5,0.7-0.8,1-1.1c0.2-0.2,0.4-0.4,0.6-0.6
	c0.1-0.3,0.2-0.8,0.3-1.3c0.3-1.5,0.7-3.3,1.9-4.4c1-1,6.5-2.2,16.8-4.3c2.2-0.4,4.2-0.9,4.9-1c1.4-1.3,4.6-3.9,6.8-5.3
	c3.5-2.3,10.6-4.7,18.5-4.9c3.2-0.1,13.1-0.1,17,1.4c0.4,0.1,0.6,0.6,0.4,1c-0.1,0.4-0.6,0.6-1,0.4c-3.4-1.3-12.5-1.4-16.4-1.3
	c-7.6,0.2-14.3,2.5-17.7,4.7c-2.1,1.4-5.4,4-6.7,5.2c-0.1,0.1-0.2,0.1-0.3,0.2c-0.5,0.2-2.1,0.5-5.2,1.1c-4.8,1-14.9,3-15.9,3.9
	c-0.9,0.8-1.2,2.4-1.5,3.7c-0.1,0.7-0.3,1.2-0.5,1.7c0,0,0,0.1-0.1,0.1c-0.2,0.3-0.6,0.6-0.9,0.9c-0.3,0.3-0.6,0.5-0.8,0.8
	c-0.2,0.5,0.1,3,0.4,3.6c0.7,0.2,4.6,0.7,5.4,0.6c0.4,0,0.8,0.3,0.8,0.7s-0.3,0.8-0.7,0.8C13.2,53.9,13.1,53.9,13,53.9z M7.8,51.9
	L7.8,51.9L7.8,51.9z"/>
<path class="st0" d="M40.5,66c-3.7,0-6.8-3-6.8-6.8c0-3.7,3-6.8,6.8-6.8c3.7,0,6.8,3,6.8,6.8C47.3,62.9,44.2,66,40.5,66z M40.5,53.9
	c-2.9,0-5.3,2.4-5.3,5.3c0,2.9,2.4,5.3,5.3,5.3c2.9,0,5.3-2.4,5.3-5.3C45.8,56.3,43.4,53.9,40.5,53.9z"/>
<path class="st0" d="M97.5,66c-3.7,0-6.8-3-6.8-6.8c0-3.7,3-6.8,6.8-6.8s6.8,3,6.8,6.8C104.3,62.9,101.3,66,97.5,66z M97.5,53.9
	c-2.9,0-5.3,2.4-5.3,5.3c0,2.9,2.4,5.3,5.3,5.3s5.3-2.4,5.3-5.3C102.8,56.3,100.5,53.9,97.5,53.9z"/>
<path class="st0" d="M75.4,46.6h-16c-0.6,0-1.1-0.4-1.4-0.9c-0.3-0.6-0.2-1.3,0.3-1.8l0,0c2.3-2.5,5.8-4.6,9.7-5.9
	c1.5-0.5,6.5-1.8,9.6-1.8c0.2,0,0.4,0.1,0.6,0.3c0.1,0.2,0.2,0.4,0.1,0.6l-1.1,4.5c-0.4,1.8-0.8,3.5-1.1,4.4
	C76,46.3,75.7,46.6,75.4,46.6z M59.4,44.9L59.4,44.9c0,0.2,0,0.2,0.1,0.2h15.4c0.2-1,0.6-2.4,0.9-3.8l0.9-3.6
	c-2.9,0.2-6.9,1.3-8.2,1.7C64.8,40.6,61.5,42.6,59.4,44.9L59.4,44.9z"/>
<path class="st0" d="M96.6,46.6h-18c-0.2,0-0.4-0.1-0.6-0.3s-0.2-0.4-0.2-0.6c0.3-1.6,1.3-6.7,1.7-8.9c0.1-0.3,0.4-0.6,0.7-0.6
	c3.4-0.1,9.8,1.1,12.2,2.1c1.9,0.8,4.5,6.2,4.8,7.4c0.1,0.2,0,0.5-0.1,0.6S96.8,46.6,96.6,46.6z M79.5,45.1h16
	c-0.8-1.8-2.7-5-3.6-5.4l0,0c-2.1-0.9-7.6-2-10.9-2C80.6,39.7,79.9,43.1,79.5,45.1z"/>
<path class="st0" d="M74,61.2L74,61.2c-0.5,0-0.8-0.4-0.7-0.8c0.3-3.6,1.7-10.8,2.1-12.2c0.1-0.4,0.5-0.6,0.9-0.5s0.6,0.5,0.5,0.9
	c-0.4,1.4-1.8,8.6-2,12C74.8,60.9,74.4,61.2,74,61.2z"/>
<path class="st0" d="M71.2,49.1h-3.5c-0.4,0-0.8-0.3-0.8-0.8s0.3-0.8,0.8-0.8h3.5c0.4,0,0.8,0.3,0.8,0.8S71.6,49.1,71.2,49.1z"/>
<path class="st0" d="M93.6,49.1h-3.5c-0.4,0-0.8-0.3-0.8-0.8s0.3-0.8,0.8-0.8h3.5c0.4,0,0.8,0.3,0.8,0.8S94,49.1,93.6,49.1z"/>
<path class="st0" d="M109.9,67H30.4c-0.4,0-0.8-0.3-0.8-0.8s0.3-0.8,0.8-0.8h79.5c0.4,0,0.8,0.3,0.8,0.8S110.4,67,109.9,67z"/>
<path class="st0" d="M24.4,62.3h-6.8c-0.4,0-0.8-0.3-0.8-0.8s0.3-0.8,0.8-0.8h6.8c0.4,0,0.8,0.3,0.8,0.8S24.8,62.3,24.4,62.3z"/>
<path class="st0" d="M13.4,57.9H6.7c-0.4,0-0.8-0.3-0.8-0.8s0.3-0.8,0.8-0.8h6.8c0.4,0,0.8,0.3,0.8,0.8S13.8,57.9,13.4,57.9z"/>
<path class="st0" d="M89,52.8c0.9-0.9,1.4,0,0.9,0.5c-1.8,1.8-2.1,4.5-2.1,7c-1.4,0-6.7,0-7.5,0c-1.2,0-1.3-0.9-0.7-1.3
	c0.5-0.3,3.1-1,5.2-2.5C87.1,55,88.6,53.2,89,52.8z"/>
</svg>
