<?xml version="1.0" encoding="utf-8"?>
<!-- Generator: Adobe Illustrator 27.6.1, SVG Export Plug-In . SVG Version: 6.00 Build 0)  -->
<svg version="1.1" id="Layer_1" xmlns="http://www.w3.org/2000/svg" xmlns:xlink="http://www.w3.org/1999/xlink" x="0px" y="0px"
	 viewBox="0 0 120 90" style="enable-background:new 0 0 120 90;" xml:space="preserve">
<style type="text/css">
	.st0{fill:#005F82;}
</style>
<path class="st0" d="M84.3,62.5H33.9c-0.4,0-0.8-0.3-0.8-0.8s0.3-0.8,0.8-0.8h50.4c0.4,0,0.8,0.3,0.8,0.8S84.7,62.5,84.3,62.5z"/>
<path class="st0" d="M14.7,62.5c-1.5,0-6.5-0.5-7.4-1.1c-1.1-0.7-1.6-5.6-0.9-6.6c0.3-0.5,0.8-1,1.2-1.3c0.3-0.3,0.6-0.5,0.7-0.7
	c0.2-0.4,0.3-1,0.4-1.6c0.4-1.7,0.9-3.9,2.3-5.3c1.2-1.2,8.1-2.7,20.3-5.2c2.8-0.6,5.2-1.1,6-1.3c1.6-1.6,5.5-4.7,8.2-6.4
	c4.3-2.7,12.9-5.6,22.4-5.9c3.9-0.1,15.9-0.1,20.6,1.7c2,0.8,5.9,3.4,9.4,5.8c1.9,1.3,3.6,2.5,4.6,3c1.6,0.2,3.8,0.6,5.1,1.1
	c1.1,0.4,2.5,1,3.3,2.4c1.1,1.9,1.9,4,2.7,8.6c0.3,1.5,0.5,3.9,0.2,7.3c-0.1,1.2-0.7,4.1-3.4,5.1c-1.3,0.5-6.4,0.6-7.2,0.6
	c-0.4,0-0.7-0.3-0.7-0.8c0-0.4,0.3-0.7,0.8-0.7c0.1,0,0.1,0,0.2,0c1.9,0,5.7-0.2,6.5-0.5c1.9-0.7,2.3-2.9,2.4-3.9
	c0.3-3.2,0-5.5-0.2-6.9c-0.7-4.4-1.5-6.2-2.5-8.1c-0.5-0.8-1.2-1.3-2.5-1.7c-1.2-0.4-3.4-0.8-5-1c-0.1,0-0.2,0-0.3-0.1
	c-1-0.5-2.8-1.7-4.8-3.2c-3.2-2.2-7.2-5-9-5.6c-4.1-1.6-15.3-1.8-20-1.6c-9.2,0.3-17.5,3.1-21.6,5.7c-2.6,1.7-6.6,4.9-8.1,6.4
	c-0.1,0.1-0.2,0.1-0.3,0.2c-0.6,0.2-2.5,0.6-6.3,1.4c-6,1.2-18.4,3.7-19.6,4.8c-1.1,1.1-1.5,3-1.9,4.5c-0.2,0.8-0.3,1.5-0.5,2
	c0,0,0,0.1-0.1,0.1c-0.3,0.4-0.7,0.7-1,1c-0.4,0.3-0.7,0.6-0.9,1c-0.3,0.6,0.1,3.9,0.6,4.6c0.8,0.3,5.7,0.9,6.6,0.8
	c0.4,0,0.8,0.3,0.8,0.7s-0.3,0.8-0.7,0.8C14.9,62.5,14.8,62.5,14.7,62.5z M8.2,60.2L8.2,60.2L8.2,60.2z"/>
<path class="st0" d="M24.6,65.8c-4.5,0-8.1-3.6-8.1-8.1s3.6-8.1,8.1-8.1s8.1,3.6,8.1,8.1C32.7,62.1,29,65.8,24.6,65.8z M24.6,51.1
	c-3.6,0-6.6,3-6.6,6.6s3,6.6,6.6,6.6s6.6-3,6.6-6.6C31.2,54,28.2,51.1,24.6,51.1z"/>
<path class="st0" d="M93.8,65.8c-4.5,0-8.1-3.6-8.1-8.1s3.6-8.1,8.1-8.1s8.1,3.6,8.1,8.1C101.9,62.1,98.3,65.8,93.8,65.8z
	 M93.8,51.1c-3.6,0-6.6,3-6.6,6.6s3,6.6,6.6,6.6s6.6-3,6.6-6.6C100.4,54,97.5,51.1,93.8,51.1z"/>
<path class="st0" d="M66.9,42.2H47.4c-0.6,0-1.2-0.4-1.5-1c-0.3-0.7-0.2-1.4,0.3-2l0.6,0.5l-0.6-0.5c2.8-3,7-5.6,11.7-7.1
	c1.8-0.6,7.8-2.2,11.6-2.2c0.2,0,0.4,0.1,0.6,0.3c0.1,0.2,0.2,0.4,0.1,0.6c-0.3,1.4-0.8,3.5-1.3,5.5c-0.5,2.1-1,4.2-1.3,5.3
	C67.5,41.9,67.2,42.2,66.9,42.2z M68.5,31.4C65,31.6,60,33,58.4,33.5c-4.4,1.4-8.4,3.8-11,6.7c-0.1,0.1-0.1,0.2-0.1,0.3
	s0.1,0.2,0.1,0.2h18.9c0.3-1.2,0.7-2.9,1.1-4.7C67.8,34.4,68.2,32.7,68.5,31.4z"/>
<path class="st0" d="M92.6,42.2H70.9c-0.2,0-0.4-0.1-0.6-0.3c-0.1-0.2-0.2-0.4-0.2-0.6c0.3-2.1,1.7-8.7,2.1-10.9
	c0.1-0.3,0.4-0.6,0.7-0.6c4.2-0.1,11.8,1.3,14.7,2.6l0,0c2.1,0.9,5.3,7.2,5.7,8.8c0.1,0.2,0,0.5-0.1,0.6
	C93.1,42.1,92.9,42.2,92.6,42.2z M71.7,40.7h19.8c-0.9-2.2-3.4-6.4-4.5-6.9l0,0c-2.6-1.1-9.4-2.4-13.5-2.4
	C73.1,33.6,72.2,38.3,71.7,40.7z"/>
<path class="st0" d="M65.3,60C65.3,60,65.2,60,65.3,60c-0.5,0-0.8-0.4-0.7-0.8c0.3-4.4,2.1-13.1,2.5-14.8c0.1-0.4,0.5-0.6,0.9-0.5
	s0.6,0.5,0.5,0.9C68,46.5,66.3,55.2,66,59.3C66,59.7,65.7,60,65.3,60z"/>
<path class="st0" d="M61.8,45.3h-4.2c-0.4,0-0.8-0.3-0.8-0.8s0.3-0.8,0.8-0.8h4.2c0.4,0,0.8,0.3,0.8,0.8S62.3,45.3,61.8,45.3z"/>
<path class="st0" d="M89,45.3h-4.2c-0.4,0-0.8-0.3-0.8-0.8s0.3-0.8,0.8-0.8H89c0.4,0,0.8,0.3,0.8,0.8S89.4,45.3,89,45.3z"/>
<path class="st0" d="M108.9,67H12.3c-0.4,0-0.8-0.3-0.8-0.8s0.3-0.8,0.8-0.8h96.5c0.4,0,0.8,0.3,0.8,0.8S109.3,67,108.9,67z"/>
<path class="st0" d="M83.5,48.8c1.1-1.1,1.7,0.1,1.1,0.6c-2.2,2.2-2.6,5.4-2.6,8.5c-1.7,0-8.1,0-9.1,0c-1.5,0-1.6-1.1-0.8-1.6
	c0.6-0.4,3.8-1.3,6.3-3C81.1,51.5,83,49.3,83.5,48.8z"/>
</svg>
